<svg xmlns="http://www.w3.org/2000/svg" width="91" height="68.5" viewBox="0 0 91 68.5">
  <g id="icon_switch_camera" transform="translate(-4.758 -18.618)">
    <path id="Path_34" data-name="Path 34" d="M60.535,22.332a4.828,4.828,0,0,1,4.011,2.147l4.368,6.956a4.821,4.821,0,0,0,4.014,2.146H87.222A4.822,4.822,0,0,1,92.044,38.4V78.581A4.821,4.821,0,0,1,87.222,83.4H13.294a4.822,4.822,0,0,1-4.822-4.822V38.4a4.823,4.823,0,0,1,4.822-4.822H27.588A4.823,4.823,0,0,0,31.6,31.436l4.37-6.956a4.822,4.822,0,0,1,4.011-2.147H60.535m0-3.215H39.98A8.026,8.026,0,0,0,33.294,22.7l-4.369,6.956a1.608,1.608,0,0,1-1.338.716H13.294A8.045,8.045,0,0,0,5.258,38.4V78.582a8.044,8.044,0,0,0,8.036,8.036H87.222a8.043,8.043,0,0,0,8.036-8.036V38.4a8.045,8.045,0,0,0-8.036-8.036H72.928a1.608,1.608,0,0,1-1.338-.716L67.221,22.7a8.023,8.023,0,0,0-6.686-3.578" fill="#fff" stroke="#fff" stroke-width="1"/>
    <path id="Path_35" data-name="Path 35" d="M71.109,54.476A20.046,20.046,0,0,0,37.451,40.534l3.415,3.414A15.224,15.224,0,0,1,66.288,54.476H60.7L68.74,64.52l8.035-10.044H71.109Z" fill="#fff" stroke="#fff" stroke-width="1"/>
    <path id="Path_36" data-name="Path 36" d="M51.062,70.547A15.264,15.264,0,0,1,35.875,56.485h5.544L33.383,46.44,25.347,56.485h5.7A20.035,20.035,0,0,0,64.672,70.026l-3.415-3.415a15.181,15.181,0,0,1-10.195,3.936" fill="#fff" stroke="#fff" stroke-width="1"/>
  </g>
</svg>
