<svg xmlns="http://www.w3.org/2000/svg" width="16.661" height="21.868" viewBox="0 0 16.661 21.868">
  <path id="icon_password" d="M21.329,10.524H20.287V8.441a5.207,5.207,0,1,0-10.413,0v2.083H8.833A2.089,2.089,0,0,0,6.75,12.606V23.02A2.089,2.089,0,0,0,8.833,25.1h12.5a2.089,2.089,0,0,0,2.083-2.083V12.606A2.089,2.089,0,0,0,21.329,10.524ZM15.081,20a2.083,2.083,0,1,1,2.083-2.083A2.089,2.089,0,0,1,15.081,20Zm3.228-9.476H11.852V8.441a3.228,3.228,0,1,1,6.457,0Z" transform="translate(-6.75 -3.234)" fill="#fff"/>
</svg>
