<svg xmlns="http://www.w3.org/2000/svg" width="31.2" height="31.228" viewBox="0 0 31.2 31.228">
  <path id="icon_switch_to_light" d="M5.244,19.8a1.193,1.193,0,0,1,.353-.876,1.22,1.22,0,0,1,.847-.339H9.326a1.07,1.07,0,0,1,.819.353,1.327,1.327,0,0,1,.014,1.723,1.05,1.05,0,0,1-.819.353H6.459a1.153,1.153,0,0,1-.847-.353A1.175,1.175,0,0,1,5.244,19.8Zm4.04,9.788a1.308,1.308,0,0,1,.325-.862l2.076-2.02a1.086,1.086,0,0,1,.833-.325,1.2,1.2,0,0,1,.847.325,1.056,1.056,0,0,1,.339.805,1.332,1.332,0,0,1-.339.9L11.36,30.421a1.282,1.282,0,0,1-1.737,0A1.14,1.14,0,0,1,9.284,29.588Zm0-19.548a1.308,1.308,0,0,1,.325-.862,1.356,1.356,0,0,1,.9-.353,1.187,1.187,0,0,1,.833.339l2.02,2.076a1.1,1.1,0,0,1,.339.833,1.159,1.159,0,0,1-1.186,1.186,1.1,1.1,0,0,1-.833-.339L9.622,10.9a1.182,1.182,0,0,1-.339-.862Zm3.6,9.76a7.129,7.129,0,0,1,.989-3.672,7.376,7.376,0,0,1,2.7-2.7,7.246,7.246,0,0,1,6.525-.4,7.379,7.379,0,0,1,2.345,1.582,7.411,7.411,0,0,1,2.147,5.2A7.143,7.143,0,0,1,26.6,23.5a7.407,7.407,0,0,1-2.684,2.684,7.367,7.367,0,0,1-7.373,0A7.407,7.407,0,0,1,13.86,23.5a7.5,7.5,0,0,1-.975-3.7Zm2.4,0a4.991,4.991,0,0,0,4.972,5,5.015,5.015,0,0,0,5-5,4.761,4.761,0,0,0-1.469-3.489,4.839,4.839,0,0,0-3.531-1.441,4.776,4.776,0,0,0-3.5,1.441A4.708,4.708,0,0,0,15.286,19.8Zm3.757,10.989a1.109,1.109,0,0,1,.353-.847,1.2,1.2,0,0,1,.847-.339,1.182,1.182,0,0,1,.862.339,1.15,1.15,0,0,1,.339.847V33.6a1.193,1.193,0,0,1-.353.876,1.153,1.153,0,0,1-.847.353,1.131,1.131,0,0,1-.847-.353,1.193,1.193,0,0,1-.353-.876V30.788Zm0-21.892V6.015a1.153,1.153,0,0,1,.353-.847,1.175,1.175,0,0,1,.862-.367,1.131,1.131,0,0,1,.847.353A1.153,1.153,0,0,1,21.459,6V8.9a1.07,1.07,0,0,1-.353.819,1.183,1.183,0,0,1-.847.325,1.221,1.221,0,0,1-.847-.325,1.111,1.111,0,0,1-.367-.819Zm7.8,18.616A1.109,1.109,0,0,1,27.956,26.4a1.2,1.2,0,0,1,.847.325l2.062,2.02a1.229,1.229,0,0,1,.339.862,1.14,1.14,0,0,1-.339.833,1.258,1.258,0,0,1-1.695,0L27.165,28.43a1.376,1.376,0,0,1-.325-.918Zm0-15.424a1.1,1.1,0,0,1,.325-.833L29.17,9.178A1.186,1.186,0,0,1,30,8.84a1.109,1.109,0,0,1,.847.353,1.153,1.153,0,0,1,.353.847,1.192,1.192,0,0,1-.339.876L28.8,12.935a1.246,1.246,0,0,1-.847.339,1.026,1.026,0,0,1-.791-.339,1.2,1.2,0,0,1-.325-.847ZM30.032,19.8a1.263,1.263,0,0,1,.339-.876,1.1,1.1,0,0,1,.805-.339h2.853a1.2,1.2,0,0,1,.847,2.062,1.153,1.153,0,0,1-.847.353H31.176a1.05,1.05,0,0,1-.819-.353,1.221,1.221,0,0,1-.325-.847Z" transform="translate(-4.644 -4.2)" fill="#fff" stroke="#fff" stroke-width="1.2"/>
</svg>
