<svg xmlns="http://www.w3.org/2000/svg" width="33.75" height="33.75" viewBox="0 0 33.75 33.75">
  <path id="qr_icon" d="M13.118,4.037H4.68v8.438h8.438Zm2.109-2.109V14.584H2.571V1.928ZM6.789,6.147h4.219v4.219H6.789ZM34.211,4.037H25.774v8.438h8.438V4.037Zm2.109-2.109V14.584H23.664V1.928H36.321ZM27.883,6.147H32.1v4.219H27.883ZM13.118,25.131H4.68v8.438h8.438Zm2.109-2.109V35.678H2.571V23.022ZM6.789,27.241h4.219v4.219H6.789ZM17.336,1.928h2.109V4.037H17.336Zm2.109,2.109h2.109V6.147H19.446ZM17.336,6.147h2.109V8.256H17.336Zm2.109,2.109h2.109v2.109H19.446Zm-2.109,2.109h2.109v2.109H17.336Zm2.109,2.109h2.109v2.109H19.446Zm-2.109,2.109h2.109v2.109H17.336Zm0,4.219h2.109v2.109H17.336Zm2.109,2.109h2.109v2.109H19.446Zm-2.109,2.109h2.109v2.109H17.336Zm2.109,2.109h2.109v2.109H19.446Zm-2.109,2.109h2.109V29.35H17.336Zm2.109,2.109h2.109v2.109H19.446Zm-2.109,2.109h2.109v2.109H17.336Zm2.109,2.109h2.109v2.109H19.446ZM34.211,18.8h2.109v2.109H34.211ZM4.68,18.8H6.789v2.109H4.68Zm2.109-2.109H8.9V18.8H6.789Zm-4.219,0H4.68V18.8H2.571Zm8.438,0h2.109V18.8H11.008ZM13.118,18.8h2.109v2.109H13.118Zm2.109-2.109h2.109V18.8H15.227ZM21.555,18.8h2.109v2.109H21.555Zm2.109-2.109h2.109V18.8H23.664ZM25.774,18.8h2.109v2.109H25.774Zm2.109-2.109h2.109V18.8H27.883ZM29.993,18.8H32.1v2.109H29.993ZM32.1,16.694h2.109V18.8H32.1Zm2.109,6.328h2.109v2.109H34.211Zm-12.656,0h2.109v2.109H21.555Zm2.109-2.109h2.109v2.109H23.664Zm2.109,2.109h2.109v2.109H25.774Zm4.219,0H32.1v2.109H29.993ZM32.1,20.912h2.109v2.109H32.1Zm2.109,6.328h2.109V29.35H34.211Zm-12.656,0h2.109V29.35H21.555Zm2.109-2.109h2.109v2.109H23.664Zm4.219,0h2.109v2.109H27.883Zm2.109,2.109H32.1V29.35H29.993ZM32.1,25.131h2.109v2.109H32.1Zm2.109,6.328h2.109v2.109H34.211ZM23.665,29.35h2.109v2.109H23.665Zm2.109,2.109h2.109v2.109H25.774Zm2.109-2.109h2.109v2.109H27.883Zm2.109,2.109H32.1v2.109H29.993Zm-6.328,2.109h2.109v2.109H23.665Zm4.219,0h2.109v2.109H27.883Zm4.219,0h2.109v2.109H32.1Z" transform="translate(-2.571 -1.928)" fill="#707070"/>
</svg>
